<svg xmlns="http://www.w3.org/2000/svg" xmlns:xlink="http://www.w3.org/1999/xlink" width="30" height="20" viewBox="0 0 30 20"><defs><style>.a{fill:#fff;stroke:#707070;}.b{clip-path:url(#a);}.c{fill:#f0f0f0;}.d{fill:#d80027;}.e{fill:#2e52b2;}</style><clipPath id="a"><rect class="a" width="30" height="20" transform="translate(580 50)"/></clipPath></defs><g class="b" transform="translate(-580 -50)"><g transform="translate(580 50)"><rect class="c" width="30" height="20" transform="translate(0 0)"/><g transform="translate(0 2.5)"><rect class="d" width="30" height="2.5"/><rect class="d" width="30" height="2.5" transform="translate(0 5)"/><rect class="d" width="30" height="2.5" transform="translate(0 10)"/><rect class="d" width="30" height="2.5" transform="translate(0 15)"/></g><rect class="e" width="15" height="10.769" transform="translate(0 0)"/><g transform="translate(1.523 1.73)"><path class="c" d="M6.331,10.353,6.09,11.1H5.308l.632.459L5.7,12.3l.632-.459.632.459-.242-.743.632-.459H6.573Z" transform="translate(-2.006 -7.671)"/><path class="c" d="M6.573,14.046,6.331,13.3l-.242.743H5.308l.632.459-.242.743.632-.459.632.459-.242-.743.632-.459Z" transform="translate(-2.006 -7.939)"/><path class="c" d="M2.94,14.046,2.7,13.3l-.242.743H1.676l.632.459-.242.743.632-.459.632.459-.242-.743.632-.459Z" transform="translate(-1.676 -7.939)"/><path class="c" d="M2.7,10.353l-.242.743H1.676l.632.459-.242.743.632-.459.632.459-.242-.743.632-.459H2.94Z" transform="translate(-1.676 -7.671)"/><path class="c" d="M6.331,7.4l-.242.743H5.308l.632.459L5.7,9.348l.632-.459.632.459L6.722,8.6l.632-.459H6.573Z" transform="translate(-2.006 -7.402)"/><path class="c" d="M2.7,7.4l-.242.743H1.676l.632.459-.242.743L2.7,8.889l.632.459L3.089,8.6l.632-.459H2.94Z" transform="translate(-1.676 -7.402)"/><path class="c" d="M9.964,10.353l-.242.743H8.941l.632.459-.241.743.632-.459.632.459-.242-.743.632-.459h-.781Z" transform="translate(-2.336 -7.671)"/><path class="c" d="M10.205,14.046,9.964,13.3l-.242.743H8.941l.632.459-.241.743.632-.459.632.459-.242-.743.632-.459Z" transform="translate(-2.336 -7.939)"/><path class="c" d="M13.838,14.046,13.6,13.3l-.242.743h-.781l.632.459-.242.743.632-.459.632.459-.242-.743.632-.459Z" transform="translate(-2.667 -7.939)"/><path class="c" d="M13.6,10.353l-.242.743h-.781l.632.459-.242.743.632-.459.632.459-.242-.743.632-.459h-.781Z" transform="translate(-2.667 -7.671)"/><path class="c" d="M9.964,7.4l-.242.743H8.941l.632.459-.241.743.632-.459.632.459L10.354,8.6l.632-.459h-.781Z" transform="translate(-2.336 -7.402)"/><path class="c" d="M13.6,7.4l-.242.743h-.781l.632.459-.242.743.632-.459.632.459L13.987,8.6l.632-.459h-.781Z" transform="translate(-2.667 -7.402)"/></g></g></g></svg>