<svg xmlns="http://www.w3.org/2000/svg" xmlns:xlink="http://www.w3.org/1999/xlink" width="20" height="20" viewBox="0 0 20 20"><defs><style>.a,.c{fill:#6f7484;}.a{stroke:#707070;}.b{clip-path:url(#a);}</style><clipPath id="a"><rect class="a" width="20" height="20" transform="translate(835 749)"/></clipPath></defs><g class="b" transform="translate(-835 -749)"><path class="c" d="M10,6.364A3.636,3.636,0,1,0,13.636,10,3.635,3.635,0,0,0,10,6.364Zm8.127,2.727a8.177,8.177,0,0,0-7.218-7.218V0H9.091V1.873A8.177,8.177,0,0,0,1.873,9.091H0v1.818H1.873a8.177,8.177,0,0,0,7.218,7.218V20h1.818V18.127a8.177,8.177,0,0,0,7.218-7.218H20V9.091ZM10,16.364A6.364,6.364,0,1,1,16.364,10,6.365,6.365,0,0,1,10,16.364Z" transform="translate(835 749)"/></g></svg>