<svg xmlns="http://www.w3.org/2000/svg" xmlns:xlink="http://www.w3.org/1999/xlink" width="60" height="60" viewBox="0 0 60 60"><defs><style>.a,.c{fill:#6f7484;}.a{stroke:#707070;}.b{clip-path:url(#a);}</style><clipPath id="a"><rect class="a" width="60" height="60" transform="translate(925 1088)"/></clipPath></defs><g class="b" transform="translate(-925 -1088)"><g transform="translate(924.233 1094.745)"><path class="c" d="M55.432,13.4a2.22,2.22,0,0,0-.807-2.8,17.014,17.014,0,0,0-5.669-2.245,7.174,7.174,0,0,0-2.725-2.839c-3.438-2.173-9.366-4.269-18.18-2.152C24.92.194,20.962-.293,16.92,1.25,12.907,2.79,8.34,6.786,5.38,9.907c-1.888,1.979-3.089,3.324-2.454,5.91A22.717,22.717,0,0,0,.921,22.792a19.124,19.124,0,0,0,6.253,16.7c2.16,4.673,7.4,6.386,12.566,6.386a25.127,25.127,0,0,0,3-.225,3.867,3.867,0,0,0,1.01.314c3.388.511,10.561-.323,11.208-3.761.328-1.753-1.012-3.621-4.075-5.687a6.875,6.875,0,0,0-1.56-4.825,3.985,3.985,0,0,0,1.413-1.871,4.693,4.693,0,0,0,3.628-2.73c3.057.859,5.486.514,6.861-2.348,2.672.95,5.918.408,8.531-.71a10.572,10.572,0,0,0,8.794.8c4.765-1.9.993-8.319-3.112-11.442ZM2.889,23.14a20.974,20.974,0,0,1,1.82-6.423,14.788,14.788,0,0,1,11.665-.687c7.465,2.83,11.787,11.509,12.5,13.026a2.24,2.24,0,0,1-1.063,1.275,31.889,31.889,0,0,0-7.564-3.379c-8.17-2.722-14.188,2.22-14.019,8.519A16.6,16.6,0,0,1,2.889,23.14ZM19.256,43.879c-2.431-.04-8.3-.649-10.355-5.385-2.723-6.271,2.632-12.346,10.712-9.651a34.645,34.645,0,0,1,6.459,2.733C28.049,32.791,28.6,33.84,28.8,35.3a3.879,3.879,0,0,0-2.462-.181,8.386,8.386,0,0,0-5.722,5.617,3.933,3.933,0,0,0,.229,3.109,14.2,14.2,0,0,1-1.592.037ZM33,41.84c-.122.65-1.306,1.52-4.266,2.014A15.135,15.135,0,0,1,24.048,44,1.977,1.977,0,0,1,22.5,41.4a6.377,6.377,0,0,1,4.367-4.361,1.956,1.956,0,0,1,1.495.24C32.944,40,33.068,41.458,33,41.84ZM30.506,27.848C26.838,20.237,20.027,13.134,11.5,13.134a17.971,17.971,0,0,0-6.76,1.395c.017-1,.739-1.835,1.838-2.989C13.672,4.1,22.384-1.987,28.065,6.53c5.213,7.817,7.445,20.455,2.44,21.318Zm4.5-2.635c1.289-5.927-1.858-14.935-5.533-20.135,7.611-1.594,12.705.232,15.7,2.123A5.869,5.869,0,0,1,46.9,8.779a12.122,12.122,0,0,0-6.038,9.016,28.653,28.653,0,0,1-1.107,5.31c-.745,2.115-1.812,2.931-4.747,2.108Zm6.9-2.335a37.7,37.7,0,0,0,.925-4.8,10.176,10.176,0,0,1,5.528-7.822,15.2,15.2,0,0,1,5.167,2.008c.164.109.183.348-.077.512a9.992,9.992,0,0,0-3.563,4.79,13.931,13.931,0,0,0-1.32,4.8,10.144,10.144,0,0,1-6.661.513Zm15.9.111c-2.784,1.115-5.626.069-7.239-.773a13.838,13.838,0,0,1,1.172-3.91,8.63,8.63,0,0,1,2.292-3.473c2.347,1.677,4.9,5.045,4.743,6.974a1.3,1.3,0,0,1-.968,1.182Z"/><path class="c" d="M23.115,4.729a6.8,6.8,0,0,0-4.767.245,21.363,21.363,0,0,0-5.1,3.129q-.3.233-.6.475-.5.4-1,.83a1,1,0,0,0,1.3,1.508q.469-.406.943-.788c.188-.151.378-.3.57-.45a19.6,19.6,0,0,1,4.591-2.843A4.871,4.871,0,0,1,22.4,6.59a1,1,0,1,0,.712-1.861Z"/><path class="c" d="M52.309,26.9A3.487,3.487,0,1,0,55.8,30.389,3.487,3.487,0,0,0,52.309,26.9Zm0,4.982A1.495,1.495,0,1,1,53.8,30.389,1.495,1.495,0,0,1,52.309,31.883Z"/><circle class="c" cx="0.996" cy="0.996" r="0.996" transform="translate(44.836 27.898)"/><circle class="c" cx="0.996" cy="0.996" r="0.996" transform="translate(40.85 28.894)"/></g></g></svg>