<svg xmlns="http://www.w3.org/2000/svg" xmlns:xlink="http://www.w3.org/1999/xlink" width="60" height="60" viewBox="0 0 60 60"><defs><style>.a,.c{fill:#6f7484;}.a{stroke:#707070;}.b{clip-path:url(#a);}</style><clipPath id="a"><rect class="a" width="60" height="60" transform="translate(925 1088)"/></clipPath></defs><g class="b" transform="translate(-925 -1088)"><g transform="translate(925.034 1088.028)"><g transform="translate(-1 -1)"><path class="c" d="M40.256,24.145a1,1,0,0,0,1.375-.332c1.649-2.694,2.516-4.382,2.553-4.452A1,1,0,1,0,42.4,18.45c-.007.016-.871,1.7-2.476,4.32a1,1,0,0,0,.332,1.375Z"/><path class="c" d="M45,28c-.361,0-.712.013-1.065.022C50.41,18.285,55.876,6.273,51.319,2.187a5.215,5.215,0,0,0-3.994-1.168c-6.694.454-18.412,9.281-29.158,21.955A118.336,118.336,0,0,0,9.282,34.891c-.013.022-.031.041-.042.063-6.89,10.64-10.7,20.865-6.558,24.57a5.051,5.051,0,0,0,3.5,1.221c6.156,0,16.165-7.6,24.7-16.5L29.407,56.523A4,4,0,0,0,33.38,61H56.62a4,4,0,0,0,3.973-4.477L58.612,40a2.015,2.015,0,0,1,.69-1.753A4.311,4.311,0,0,0,61,35c0-3.991-6.879-7-16-7ZM36.421,15.113a2.055,2.055,0,0,1,.681,2.768,1.921,1.921,0,0,1-1.19.917,1.832,1.832,0,0,1-1.421-.22A16.3,16.3,0,0,1,32,16.735a17.451,17.451,0,0,1-2.463-2.756c1-.915,1.984-1.772,2.959-2.591a13.139,13.139,0,0,0,3.925,3.725ZM24.789,18.634A18.772,18.772,0,0,0,29.906,24a2.05,2.05,0,0,1,.531,2.79,1.912,1.912,0,0,1-1.233.847,1.854,1.854,0,0,1-1.415-.3,21.781,21.781,0,0,1-2.143-1.693,23.079,23.079,0,0,1-3.575-4.092q1.355-1.505,2.718-2.918Zm-7.3,8.314A24.828,24.828,0,0,0,22.9,32.316a2.053,2.053,0,0,1,.487,2.805,1.9,1.9,0,0,1-1.245.818,1.835,1.835,0,0,1-1.406-.318,27.285,27.285,0,0,1-2.389-1.912,29.022,29.022,0,0,1-3.339-3.558q1.183-1.584,2.479-3.2Zm-2.515,13.8a2.046,2.046,0,0,1,.741,2.742,1.918,1.918,0,0,1-1.166.943,1.846,1.846,0,0,1-1.428-.179,24.676,24.676,0,0,1-4.9-3.743q.951-1.692,2.066-3.48a21.159,21.159,0,0,0,4.685,3.718ZM4.017,58.035c-2.073-1.855-.925-7.8,3.214-15.7a26.5,26.5,0,0,0,4.89,3.655,3.832,3.832,0,0,0,2.97.371,3.9,3.9,0,0,0,2.38-1.913,4.058,4.058,0,0,0-1.5-5.429A19.16,19.16,0,0,1,11.4,35.3q1.119-1.7,2.381-3.468A30.958,30.958,0,0,0,17.014,35.2a29.307,29.307,0,0,0,2.562,2.051,3.822,3.822,0,0,0,2.232.721,3.942,3.942,0,0,0,.69-.062,3.889,3.889,0,0,0,2.548-1.667,4.065,4.065,0,0,0-.981-5.552,22.87,22.87,0,0,1-5.274-5.342c.3-.359.595-.719.9-1.08.337-.4.678-.781,1.017-1.171a25.012,25.012,0,0,0,3.6,4.036,24.09,24.09,0,0,0,2.341,1.85,3.864,3.864,0,0,0,5.462-1.1,4.064,4.064,0,0,0-1.072-5.526,16.8,16.8,0,0,1-4.8-5.2q.914-.915,1.823-1.784a19.363,19.363,0,0,0,2.6,2.861,18.236,18.236,0,0,0,2.788,2.065,3.822,3.822,0,0,0,2,.567,3.887,3.887,0,0,0,3.38-1.977A4.066,4.066,0,0,0,37.459,13.4a11.147,11.147,0,0,1-3.407-3.285c5.332-4.248,10.14-6.882,13.409-7.1a3.327,3.327,0,0,1,2.521.661c2.568,2.3.427,11.44-8.564,24.492C34.139,28.842,29,31.552,29,35a4.311,4.311,0,0,0,1.7,3.251A2.015,2.015,0,0,1,31.39,40l-.107.886C18.367,55.017,7.089,60.8,4.017,58.035ZM57.983,36.747a4.02,4.02,0,0,0-1.357,3.5l1.98,16.516A2,2,0,0,1,56.62,59H33.38a2,2,0,0,1-1.986-2.241l1.98-16.515a4.021,4.021,0,0,0-1.357-3.5A2.454,2.454,0,0,1,31,35c0-2.36,5.987-5,14-5s14,2.64,14,5a2.454,2.454,0,0,1-1.017,1.747Z"/><circle class="c" cx="1" cy="1" r="1" transform="translate(40 34)"/><circle class="c" cx="1" cy="1" r="1" transform="translate(36 38)"/><circle class="c" cx="1" cy="1" r="1" transform="translate(40 42)"/><circle class="c" cx="1" cy="1" r="1" transform="translate(52 36)"/><circle class="c" cx="1" cy="1" r="1" transform="translate(46 33)"/><circle class="c" cx="1" cy="1" r="1" transform="translate(49 42)"/><circle class="c" cx="1" cy="1" r="1" transform="translate(44 38)"/></g></g></g></svg>