<svg xmlns="http://www.w3.org/2000/svg" xmlns:xlink="http://www.w3.org/1999/xlink" width="60" height="60" viewBox="0 0 60 60"><defs><style>.a,.c{fill:#6f7484;}.a{stroke:#707070;}.b{clip-path:url(#a);}</style><clipPath id="a"><rect class="a" width="60" height="60" transform="translate(925 1088)"/></clipPath></defs><g class="b" transform="translate(-925 -1088)"><g transform="translate(925 1088.317)"><path class="c" d="M34.532,7.495A25.447,25.447,0,0,1,44.855,11.41,16.089,16.089,0,0,1,50.828,18.3a1.172,1.172,0,1,0,2.16-.91,18.414,18.414,0,0,0-6.82-7.918A27.8,27.8,0,0,0,34.89,5.179a1.172,1.172,0,0,0-.358,2.316Zm0,0"/><path class="c" d="M11.76,16.286a1.171,1.171,0,1,0,.4-1.4A1.2,1.2,0,0,0,11.76,16.286Zm0,0"/><path class="c" d="M17.406,11.922a1.171,1.171,0,1,0,.4-1.4A1.2,1.2,0,0,0,17.406,11.922Zm0,0"/><path class="c" d="M23.471,16.286a1.171,1.171,0,1,0,.4-1.4A1.2,1.2,0,0,0,23.471,16.286Zm0,0"/><path class="c" d="M60,37.141a5.938,5.938,0,0,0-3.964-5.592V28.617a5.033,5.033,0,0,0,1.063-.542,4.627,4.627,0,0,0,2.1-3.885,4.578,4.578,0,0,0-.869-2.7,3.781,3.781,0,0,0,.233-2.169c-1-5.367-4.449-10.28-9.7-13.834A33.915,33.915,0,0,0,30,0,33.915,33.915,0,0,0,11.14,5.49c-5.254,3.554-8.7,8.467-9.7,13.834a3.779,3.779,0,0,0,.489,2.669,4.558,4.558,0,0,0-.555,2.2,4.627,4.627,0,0,0,2.1,3.885,5.1,5.1,0,0,0,.493.29v3.184A5.938,5.938,0,0,0,0,37.141v.238a5.912,5.912,0,0,0,1.89,4.334,4.621,4.621,0,0,0,.678,5.23v4.229a8.2,8.2,0,0,0,8.194,8.194H49.238a8.2,8.2,0,0,0,8.194-8.194v-3.7a4.628,4.628,0,0,0,1.04-6.129A5.9,5.9,0,0,0,60,37.379Zm-2.344,0v.238a3.59,3.59,0,0,1-3.584,3.584H35.9l7.473-7.407h10.7A3.589,3.589,0,0,1,57.656,37.141ZM17.762,33.557l.186.186,1.2,1.2-2.516,2.517-3.9-3.9Zm11.065,7.75-7.19-7.189h0l-.559-.559H40.039L32.207,41.3v0l0,0-1.688,1.688ZM3.74,19.754c.888-4.746,3.982-9.123,8.713-12.323A31.552,31.552,0,0,1,30,2.344,31.552,31.552,0,0,1,47.547,7.43c4.731,3.2,7.825,7.577,8.713,12.323a1.472,1.472,0,0,1-1.432,1.721H5.172A1.472,1.472,0,0,1,3.74,19.754Zm.061,3.81a3.816,3.816,0,0,0,1.371.255H54.828a3.822,3.822,0,0,0,1.861-.485,2.272,2.272,0,0,1,.167.855,2.317,2.317,0,0,1-1.063,1.939,2.761,2.761,0,0,1-2.361.325c-.39-.124-.759-.283-1.162-.369a6.335,6.335,0,0,0-1.327-.135,6.423,6.423,0,0,0-4.119,1.43,4.324,4.324,0,0,1-5.533,0,6.646,6.646,0,0,0-8.237,0,4.325,4.325,0,0,1-5.534,0,6.648,6.648,0,0,0-8.237,0,4.325,4.325,0,0,1-5.534,0,6.42,6.42,0,0,0-4.119-1.43,5.932,5.932,0,0,0-2.283.429,2.765,2.765,0,0,1-2.568-.251A2.317,2.317,0,0,1,3.715,24.19,2.258,2.258,0,0,1,3.8,23.564Zm2.739,5.36a5.692,5.692,0,0,0,1.764-.4,4.037,4.037,0,0,1,1.8-.207,4.239,4.239,0,0,1,2.293.981,6.646,6.646,0,0,0,8.237,0,4.326,4.326,0,0,1,5.534,0,6.646,6.646,0,0,0,8.237,0,4.326,4.326,0,0,1,5.534,0,6.646,6.646,0,0,0,8.237,0,4.143,4.143,0,0,1,2.767-1,3.794,3.794,0,0,1,1.4.255,5.428,5.428,0,0,0,1.354.349v2.316H6.308V28.93C6.385,28.93,6.463,28.927,6.541,28.924Zm-4.2,8.217a3.589,3.589,0,0,1,3.584-3.584H9.414l6.39,6.391a1.173,1.173,0,0,0,1.657,0L20.807,36.6l4.361,4.361H5.928a3.589,3.589,0,0,1-3.584-3.584Zm1.565,5.811a5.946,5.946,0,0,0,2.02.355H27.512l2.173,2.173a1.184,1.184,0,0,0,1.653,0l2.2-2.177H54.072a5.962,5.962,0,0,0,1.945-.328,2.986,2.986,0,0,0,.388-.154c.04-.021.1-.066.145-.063.065,0,.082.087.105.14a2.268,2.268,0,0,1,.2.893,2.439,2.439,0,0,1-1.816,2.332,2.775,2.775,0,0,1-1.815-.1,5.92,5.92,0,0,0-2.281-.429,6.419,6.419,0,0,0-4.118,1.43,4.324,4.324,0,0,1-5.534,0,6.646,6.646,0,0,0-8.237,0,4.324,4.324,0,0,1-5.534,0,6.646,6.646,0,0,0-8.237,0,4.324,4.324,0,0,1-5.534,0A6.422,6.422,0,0,0,9.628,45.6a5.92,5.92,0,0,0-2.282.43,2.763,2.763,0,0,1-2.379-.135,2.4,2.4,0,0,1-1.226-1.707,2.312,2.312,0,0,1-.006-.656C3.743,43.465,3.851,42.931,3.908,42.952Zm51.18,8.22a5.857,5.857,0,0,1-5.85,5.85H10.762a5.857,5.857,0,0,1-5.85-5.85v-2.78A5.075,5.075,0,0,0,7.9,48.317l.06-.02c.09-.032.18-.064.269-.1a3.627,3.627,0,0,1,1.4-.255,4.139,4.139,0,0,1,2.767,1,6.647,6.647,0,0,0,8.238,0,4.326,4.326,0,0,1,5.534,0,6.646,6.646,0,0,0,8.237,0,4.325,4.325,0,0,1,5.533,0,6.646,6.646,0,0,0,8.237,0,4.14,4.14,0,0,1,2.767-1,3.868,3.868,0,0,1,1.037.133c.321.089.624.23.945.321a5.056,5.056,0,0,0,2.163.122v2.656Zm0,0"/><path class="c" d="M26.474,11.922a1.172,1.172,0,1,0,.4-1.4A1.2,1.2,0,0,0,26.474,11.922Zm0,0"/><path class="c" d="M31.76,17.087a1.171,1.171,0,1,0,.4-1.4A1.2,1.2,0,0,0,31.76,17.087Zm0,0"/><path class="c" d="M28.768,6.565a1.171,1.171,0,0,0,1.747-1.386,1.171,1.171,0,1,0-1.747,1.386Zm0,0"/></g></g></svg>