<svg xmlns="http://www.w3.org/2000/svg" xmlns:xlink="http://www.w3.org/1999/xlink" width="90" height="90" viewBox="0 0 90 90"><defs><style>.a,.c{fill:#ec0d28;}.a{stroke:#707070;}.b{clip-path:url(#a);}</style><clipPath id="a"><rect class="a" width="90" height="90" transform="translate(921 1148)"/></clipPath></defs><g class="b" transform="translate(-921 -1148)"><g transform="translate(921.056 1146.609)"><path class="c" d="M27.494,56.216a1.5,1.5,0,0,0-1.67-2.489,34.935,34.935,0,0,0-5.23,4.309,34.17,34.17,0,0,0-9.542,18.1A1.5,1.5,0,1,0,14,76.678a31.163,31.163,0,0,1,8.714-16.524,31.711,31.711,0,0,1,4.781-3.939Z"/><path class="c" d="M85.363,80.975A40.468,40.468,0,0,0,51.538,42.491a7.464,7.464,0,0,0,.449-1.125A4.505,4.505,0,0,0,56.6,38.639a23.573,23.573,0,0,0,1.828-8.917,14.639,14.639,0,0,0-1.521-5.079l15.2,7.191a4.959,4.959,0,0,0,2.18.494,5.064,5.064,0,0,0,2.408-9.514l-.081-.042a5.05,5.05,0,0,0-2.065-8.785c-9.65-2.334-19.538-4.324-27.871-5.6-11.29-4.628-19.95-7-25.7-7A47.193,47.193,0,0,0,1.757,5.253,2.987,2.987,0,0,0,0,7.985V27.327a3,3,0,0,0,4.433,2.637l10.816-5.9a7.341,7.341,0,0,1,7.973.5,16.33,16.33,0,0,1,3.963,4.579c1.581,2.622,3.319,5.334,5.151,8.063.367.542.724,1.049,1.049,1.531l.529.761a4.794,4.794,0,0,0,3.94,2.051h.072a7.416,7.416,0,0,0,.431.948A40.468,40.468,0,0,0,4.529,80.972,5.187,5.187,0,0,0,0,86.147,5.244,5.244,0,0,0,5.244,91.39h79.4a5.232,5.232,0,0,0,.715-10.416ZM41.244,32.48a9.815,9.815,0,0,1-.869-6.642.918.918,0,0,1,.539-.638,6.965,6.965,0,0,1,4.6.93A6.123,6.123,0,0,1,49.2,30.981a8.577,8.577,0,0,1-.252,1.648,7.341,7.341,0,0,0-7.707-.15Zm34.143-13.2a2.053,2.053,0,0,1-2.178,1.673c-5.05-2.668-10.143-5.2-15.006-7.491,5.094,1,10.393,2.165,15.634,3.435a2.072,2.072,0,0,1,1.551,2.382Zm-39,18.506-.532-.767c-.325-.467-.674-.969-1.031-1.5-1.8-2.685-3.509-5.356-5.07-7.94a19.27,19.27,0,0,0-4.7-5.406,10.338,10.338,0,0,0-11.237-.757L3,27.327,2.974,7.991a44.2,44.2,0,0,1,18-3.6c5.867,0,15.16,2.7,27.621,8.029C56.7,15.9,66.17,20.527,75.252,25.453a2.075,2.075,0,0,1,.879,2.724,2.1,2.1,0,0,1-2.737.962L53.078,19.52a1.477,1.477,0,0,0-1.834.5,1.533,1.533,0,0,0,.15,1.934A14.479,14.479,0,0,1,55.434,30a21.258,21.258,0,0,1-1.6,7.491,1.5,1.5,0,0,1-1.844.836,2.133,2.133,0,0,1-.207-.085,1.564,1.564,0,0,0-.133-.087,1.434,1.434,0,0,1-.71-1.242,1.717,1.717,0,0,1,.1-.524l.165-.536a21.532,21.532,0,0,0,.992-5A9.028,9.028,0,0,0,46.81,23.43c-1.648-.791-4.745-1.969-7.064-.99a3.9,3.9,0,0,0-2.213,2.45c-1.089,3.251,0,6.673,1.357,9.695a7.434,7.434,0,0,0-1.392,3.91A1.768,1.768,0,0,1,36.382,37.789Zm4.126,1.816a4.234,4.234,0,0,1-.057-.652,4.484,4.484,0,0,1,4.495-4.495A4.382,4.382,0,0,1,48.1,35.807a4.258,4.258,0,0,0,1.179,4.265,4.4,4.4,0,0,1-1.146,2.018c-1.056-.087-2.12-.141-3.191-.141s-2.139.054-3.2.136A4.427,4.427,0,0,1,40.508,39.605ZM86.241,87.739a2.234,2.234,0,0,1-1.593.655H5.244a2.247,2.247,0,0,1,0-4.495h9.738a1.5,1.5,0,0,0,0-3H7.527a37.449,37.449,0,0,1,74.838,0H22.473a1.5,1.5,0,0,0,0,3H84.649a2.247,2.247,0,0,1,1.593,3.84Z"/><path class="c" d="M13.318,8.012A39.388,39.388,0,0,0,7,9.624,1.5,1.5,0,0,0,5.993,11.04v6.938a1.5,1.5,0,0,0,3,0V12.122a36.808,36.808,0,0,1,4.83-1.155,1.5,1.5,0,0,0-.5-2.954Z"/><circle class="c" cx="1.498" cy="1.498" r="1.498" transform="translate(29.964 50.939)"/></g></g></svg>