<svg xmlns="http://www.w3.org/2000/svg" xmlns:xlink="http://www.w3.org/1999/xlink" width="60" height="60" viewBox="0 0 60 60"><defs><style>.a,.c{fill:#6f7484;}.a{stroke:#707070;}.b{clip-path:url(#a);}</style><clipPath id="a"><rect class="a" width="60" height="60" transform="translate(925 1088)"/></clipPath></defs><g class="b" transform="translate(-925 -1088)"><g transform="translate(925 1088)"><path class="c" d="M58.52,46.589a9.114,9.114,0,0,0,1.452-5.617,12.1,12.1,0,0,0-2.278-5.823c-2.434-3.584-6.512-7.018-10.456-10.339-1.975-1.663-4.018-3.383-5.757-5.049a89.16,89.16,0,0,1-6.2-6.91c-3.347-3.988-6.808-8.112-10.443-10.5A11.407,11.407,0,0,0,18.91.235a9.263,9.263,0,0,0-5.665,1.822A10.987,10.987,0,0,0,12,1.513c-5.068-1.825-7.917.33-9.165,1.776a10.631,10.631,0,0,0-1.41,10.6c-1.364,2-1.756,4.6-1.132,7.67,1.312,6.467,7.244,15.2,15.868,23.372A80.76,80.76,0,0,0,28.4,54.559c4.32,2.716,8.314,4.444,11.548,5a14.1,14.1,0,0,0,2.38.212,8.123,8.123,0,0,0,5.737-2,7,7,0,0,0,3.239.782,8.516,8.516,0,0,0,6.322-2.968,7.742,7.742,0,0,0,1.842-5.72,9.146,9.146,0,0,0-.947-3.278ZM14.569,7.663a1.161,1.161,0,0,1,1.137-.946,1.165,1.165,0,0,1,.213.02c3.308.627,5.03,1.3,6.352,2.48,1.39,1.241,2.15,2.921,3.067,5.586.885,2.573,2.172,2.983,3.523,3.2a6.568,6.568,0,0,1,3.85,1.606,5.657,5.657,0,0,1,1.527,3.325,6.118,6.118,0,0,0,1.375,3.149,7.185,7.185,0,0,0,3.881,1.863c1.607.345,2.769.595,3.984,2.1a7.159,7.159,0,0,1,1.506,3.182A4.016,4.016,0,0,0,46.8,35.9a11.665,11.665,0,0,0,2.182,1.133c2.333.994,3.742,1.594,4.837,6.212a1.164,1.164,0,1,1-2.265.537c-.767-3.235-1.926-3.953-3.48-4.615a13.317,13.317,0,0,1-2.587-1.36A5.642,5.642,0,0,1,42.729,33.8a5.469,5.469,0,0,0-1.043-2.29,4.321,4.321,0,0,0-2.666-1.288,8.963,8.963,0,0,1-5.009-2.463,7.749,7.749,0,0,1-2.033-4.324c-.28-1.226-.4-1.734-.8-2.088a5,5,0,0,0-2.693-1.053c-2.289-.371-3.942-.64-5.352-4.737-.813-2.363-1.409-3.726-2.408-4.619-1.1-.983-2.818-1.463-5.232-1.921h0a1.159,1.159,0,0,1-.926-1.353Zm18.92,6.694a92.183,92.183,0,0,0,6.371,7.1c1.793,1.718,3.865,3.463,5.869,5.15,8.356,7.036,13.8,12.232,11.342,17.735q-.406-.509-.879-1.01a3.55,3.55,0,0,0-.09-.624c-1.368-5.771-3.607-6.724-6.2-7.828a9.642,9.642,0,0,1-1.766-.9,1.769,1.769,0,0,1-.881-1.323A9.472,9.472,0,0,0,45.3,28.571a8.062,8.062,0,0,0-5.313-2.913A5,5,0,0,1,37.242,24.4a4.915,4.915,0,0,1-.717-1.983,7.734,7.734,0,0,0-2.257-4.557,8.919,8.919,0,0,0-5.03-2.167c-.81-.132-1.18-.192-1.682-1.652C26.509,11,25.606,9.052,23.833,7.469c-1.8-1.6-4.082-2.355-6.937-2.929q-.748-.613-1.434-1.108C21.084.359,26.346,5.847,33.49,14.358Zm22.35,39.71a5.724,5.724,0,0,1-6.407,1.76c1.678-3.741-.28-8.776-4.885-12.544A172.074,172.074,0,0,1,19.911,19.166a1.172,1.172,0,1,0-1.81,1.488A174.342,174.342,0,0,0,43.063,45.1c4.347,3.557,5.235,7.57,4.221,9.794-.952,2.089-3.483,2.947-6.942,2.355-5.853-1-14.5-6.374-22.573-14.018C9.482,35.38,3.806,27.105,2.586,21.093c-.717-3.533.115-6.008,2.544-7.565a5.013,5.013,0,0,1,5.915-.123A1.172,1.172,0,0,0,12.252,11.4a7.348,7.348,0,0,0-8.388.158q-.328.211-.629.44A8.214,8.214,0,0,1,4.606,4.82c1.5-1.735,3.777-2.116,6.6-1.1a11.289,11.289,0,0,1,2.461,1.316,3.5,3.5,0,0,0,1.4,6.285c2.322.44,3.511.836,4.1,1.366s1.1,1.743,1.753,3.633c1.866,5.423,4.7,5.883,7.193,6.288a3.915,3.915,0,0,1,1.342.367c.07.25.168.677.238.986a10.015,10.015,0,0,0,2.689,5.486,11.218,11.218,0,0,0,6.144,3.069,2.885,2.885,0,0,1,1.337.471,3.271,3.271,0,0,1,.593,1.393,7.869,7.869,0,0,0,3.7,5.356,15.49,15.49,0,0,0,3,1.589c1.041.443,1.564.666,2.117,3a3.511,3.511,0,0,0,3.407,2.7,3.536,3.536,0,0,0,.815-.1,3.481,3.481,0,0,0,1.792-1.06c2.279,2.909,2.507,5.9.549,8.2Z"/><path class="c" d="M15.631,14.686h0A1.172,1.172,0,1,0,16.8,15.858a1.172,1.172,0,0,0-1.173-1.172Z"/></g></g></svg>