<svg xmlns="http://www.w3.org/2000/svg" width="19.998" height="19.998" viewBox="0 0 19.998 19.998"><defs><style>.a{fill:#fff;}</style></defs><path class="a" d="M13.749,0h-7.5A6.25,6.25,0,0,0,0,6.249v7.5A6.25,6.25,0,0,0,6.249,20h7.5A6.25,6.25,0,0,0,20,13.749v-7.5A6.25,6.25,0,0,0,13.749,0Zm4.375,13.749a4.379,4.379,0,0,1-4.375,4.375h-7.5a4.379,4.379,0,0,1-4.375-4.375v-7.5A4.379,4.379,0,0,1,6.249,1.875h7.5a4.379,4.379,0,0,1,4.375,4.375Z"/><g transform="translate(5.002 5.002)"><path class="a" d="M133,128a5,5,0,1,0,5,5A5,5,0,0,0,133,128Zm0,8.12A3.123,3.123,0,1,1,136.12,133,3.127,3.127,0,0,1,133,136.12Z" transform="translate(-128 -128)"/></g><g transform="translate(14.708 3.959)"><circle class="a" cx="0.666" cy="0.666" r="0.666"/></g></svg>