<svg xmlns="http://www.w3.org/2000/svg" xmlns:xlink="http://www.w3.org/1999/xlink" width="60" height="60" viewBox="0 0 60 60"><defs><style>.a,.c{fill:#6f7484;}.a{stroke:#707070;}.b{clip-path:url(#a);}</style><clipPath id="a"><rect class="a" width="60" height="60" transform="translate(925 1088)"/></clipPath></defs><g class="b" transform="translate(-925 -1088)"><g transform="translate(925 1088)"><path class="c" d="M6.453,25.648a1.181,1.181,0,1,1-1.181-1.181A1.181,1.181,0,0,1,6.453,25.648ZM60,1.181V5.906a1.181,1.181,0,0,1-1.181,1.181H47.192l-3.42,7.323H45.35a1.181,1.181,0,0,1,1.177,1.085c.648,7.933.976,15.964.976,23.872A37.186,37.186,0,0,1,42.73,57.588,4.772,4.772,0,0,1,38.57,60h-16.2a4.772,4.772,0,0,1-4.16-2.412,37.184,37.184,0,0,1-4.774-18.222q0-4.141.121-8.317A15.452,15.452,0,0,1,9.1,29.767a1.181,1.181,0,1,1,.985-2.147,13.1,13.1,0,0,0,3.558,1.055q.044-1.191.1-2.381A10.865,10.865,0,1,1,26.392,14.409h2.374a13.229,13.229,0,1,0-25.342,6.38,1.181,1.181,0,0,1-2.172.93,15.592,15.592,0,1,1,29.885-7.309h4.822l5.129-11A5.926,5.926,0,0,1,46.44,0H58.819A1.181,1.181,0,0,1,60,1.181ZM20.455,8.621l-2.937,5.788h6.493A8.513,8.513,0,0,0,20.455,8.621Zm-9.979.18,4.8,4.8L18.35,7.549A8.48,8.48,0,0,0,10.476,8.8Zm2.919,6.259-4.59-4.589A8.458,8.458,0,0,0,7.217,17.06Zm.885,2.2L7.947,19.307a8.531,8.531,0,0,0,5.905,4.607q.176-3.332.427-6.656Zm30.249,28.6a16.076,16.076,0,0,1-14.056,8.1A15.75,15.75,0,0,1,16.385,45.7a34.744,34.744,0,0,0,3.887,10.733,2.407,2.407,0,0,0,2.1,1.21h16.2a2.407,2.407,0,0,0,2.1-1.21A34.747,34.747,0,0,0,44.528,45.862Zm.518-13.847c-.041-1.61-.31-6.667-.522-10.519H16.4c-.211,3.843-.463,8.811-.507,10.519a36.5,36.5,0,0,0,1.212,9.124,13.765,13.765,0,0,0,26.725,0A36.5,36.5,0,0,0,45.047,32.015ZM16.685,16.772c-.028.362-.081,1.221-.148,2.362H44.393c-.08-1.421-.134-2.362-.134-2.362ZM57.638,2.362H46.44a3.556,3.556,0,0,0-3.211,2.046l-4.664,10h2.6l4.2-9a1.181,1.181,0,0,1,1.07-.681h11.2Z"/></g></g></svg>