<svg xmlns="http://www.w3.org/2000/svg" xmlns:xlink="http://www.w3.org/1999/xlink" width="20" height="20" viewBox="0 0 20 20"><defs><style>.a,.c{fill:#fff;}.a{stroke:#707070;}.b{clip-path:url(#a);}</style><clipPath id="a"><rect class="a" width="20" height="20" transform="translate(455 6666)"/></clipPath></defs><g class="b" transform="translate(-455 -6666)"><g transform="translate(455 6666)"><path class="c" d="M10,0A7.251,7.251,0,0,0,2.757,7.243c0,4.957,6.482,12.233,6.758,12.54a.652.652,0,0,0,.971,0c.276-.307,6.758-7.584,6.758-12.54A7.252,7.252,0,0,0,10,0Zm0,10.887a3.644,3.644,0,1,1,3.644-3.644A3.648,3.648,0,0,1,10,10.887Z"/></g></g></svg>