<svg xmlns="http://www.w3.org/2000/svg" xmlns:xlink="http://www.w3.org/1999/xlink" width="60" height="60" viewBox="0 0 60 60"><defs><style>.a,.c{fill:#6f7484;}.a{stroke:#707070;}.b{clip-path:url(#a);}</style><clipPath id="a"><rect class="a" width="60" height="60" transform="translate(925 1088)"/></clipPath></defs><g class="b" transform="translate(-925 -1088)"><g transform="translate(924.032 1087.032)"><path class="c" d="M30.967,10.645c4.732,0,12.67-.377,12.67-2.9s-7.938-2.9-12.67-2.9-12.67.377-12.67,2.9S26.235,10.645,30.967,10.645Zm0-3.871a39.545,39.545,0,0,1,10.019.968,39.545,39.545,0,0,1-10.019.968,39.545,39.545,0,0,1-10.019-.968A39.545,39.545,0,0,1,30.967,6.774Z"/><path class="c" d="M58.1,33.549c1.434-1.424,1.2-4.092-.669-7.717a44.663,44.663,0,0,0-7.651-10.1,47.944,47.944,0,0,0,.68-7.985c0-4.4-10.045-6.774-19.5-6.774s-19.5,2.374-19.5,6.774a47.145,47.145,0,0,0,5.9,22.93,47.42,47.42,0,0,0-.916,9.228v.373a2.892,2.892,0,0,0,.375,1.394l-4.551,4.517a3.851,3.851,0,0,1-3.5,1.1,4.862,4.862,0,0,0-5.845,4.18,4.818,4.818,0,0,0,3.508,5.2,1.1,1.1,0,0,1,.792.783,4.781,4.781,0,0,0,1.234,2.1A4.859,4.859,0,0,0,11.9,60.968a5.055,5.055,0,0,0,.578-.034,4.9,4.9,0,0,0,3.6-2.3,4.819,4.819,0,0,0,.584-3.555,3.747,3.747,0,0,1,1.117-3.411l4.558-4.523a2.9,2.9,0,0,0,1.41.375h.375c.975,0,1.963-.041,2.948-.1v1.426a3.775,3.775,0,0,1-1.685,3.222A4.843,4.843,0,0,0,30.4,60.347a1.126,1.126,0,0,1,1.126,0A4.843,4.843,0,0,0,36.5,52.039a3.761,3.761,0,0,1-1.644-3.2V46.3A48.036,48.036,0,0,0,58.1,33.549Zm-30.229,7.1a.994.994,0,0,1-.7-.287l-.264-.262A45.255,45.255,0,0,1,13.526,10.9c3.421,2.366,10.585,3.616,17.441,3.616s14.02-1.25,17.441-3.615A45.26,45.26,0,0,1,35.024,40.094l-.267.263a.992.992,0,0,1-.7.286H27.874ZM48.121,22.482a26.889,26.889,0,0,1,3.279,4.4,24,24,0,0,1-3.846-2.748c.2-.547.387-1.1.567-1.655ZM34.86,42.455a2.9,2.9,0,0,0,1.259-.723l.267-.263a47.816,47.816,0,0,0,8.763-11.9c3.091,2.323,6.526,4.294,9.242,4.779a46.1,46.1,0,0,1-19.53,9.971ZM55.714,26.719c1.63,3.155,1.6,4.887,1.025,5.455-1.08,1.074-5.17-.127-10.713-4.373.273-.584.54-1.172.79-1.766,3.094,2.515,4.662,3.136,5.509,3.136a1.212,1.212,0,0,0,.951-.412c.421-.418,1.664-1.687-4.5-8.452q.306-1.121.557-2.259a40.9,40.9,0,0,1,6.383,8.671ZM30.967,2.9c10.881,0,17.561,2.818,17.561,4.839s-6.68,4.839-17.561,4.839S13.406,9.762,13.406,7.742,20.086,2.9,30.967,2.9ZM16.419,50.289a5.7,5.7,0,0,0-1.635,5.238,2.835,2.835,0,0,1-.345,2.079h0a2.957,2.957,0,0,1-4.606.57A2.8,2.8,0,0,1,9.1,56.929,3.042,3.042,0,0,0,6.957,54.8,2.828,2.828,0,0,1,5.7,54.072a2.892,2.892,0,0,1,.576-4.55,2.842,2.842,0,0,1,1.486-.406,3.151,3.151,0,0,1,.654.069,5.778,5.778,0,0,0,5.234-1.628l4.47-4.436,2.764,2.742Zm7.707-4.709h-.375a.99.99,0,0,1-.7-.286l-3.961-3.931-.3-.293-.118-.117a.952.952,0,0,1-.285-.681V39.9a45.5,45.5,0,0,1,.5-6.686,48.131,48.131,0,0,0,6.655,8.257l.264.262a2.907,2.907,0,0,0,1.26.724v3.021c-.986.062-1.973.1-2.949.1ZM35.5,53.692a2.882,2.882,0,0,1,.706,4.221,2.977,2.977,0,0,1-3.727.746,3.061,3.061,0,0,0-3.023,0,2.982,2.982,0,0,1-3.727-.747,2.882,2.882,0,0,1,.733-4.238,5.706,5.706,0,0,0,2.548-4.834V42.579h3.916v6.263A5.712,5.712,0,0,0,35.5,53.692Z"/><path class="c" d="M17.31,19.585a33.6,33.6,0,0,0,8.976,15.842l1.364-1.374a31.66,31.66,0,0,1-8.46-14.93Z"/></g></g></svg>