<svg xmlns="http://www.w3.org/2000/svg" xmlns:xlink="http://www.w3.org/1999/xlink" width="20" height="20" viewBox="0 0 20 20"><defs><style>.a,.c{fill:#fff;}.a{stroke:#707070;}.b{clip-path:url(#a);}</style><clipPath id="a"><rect class="a" width="20" height="20" transform="translate(455 6776)"/></clipPath></defs><g class="b" transform="translate(-455 -6776)"><g transform="translate(455 6776)"><path class="c" d="M.417,3.717c2.745,2.325,7.561,6.414,8.977,7.69a.836.836,0,0,0,1.21,0c1.417-1.276,6.233-5.367,8.978-7.691a.416.416,0,0,0,.059-.575A1.655,1.655,0,0,0,18.333,2.5H1.667a1.655,1.655,0,0,0-1.308.642A.416.416,0,0,0,.417,3.717Z"/><path class="c" d="M19.758,4.977a.415.415,0,0,0-.444.06c-1.8,1.524-4.166,3.537-5.953,5.074a.416.416,0,0,0,.011.641c1.66,1.329,4.161,3.158,5.967,4.458a.417.417,0,0,0,.66-.338V5.355A.417.417,0,0,0,19.758,4.977Z"/><path class="c" d="M.66,15.209c1.807-1.3,4.308-3.128,5.968-4.458a.416.416,0,0,0,.011-.641C4.853,8.574,2.484,6.561.686,5.037A.417.417,0,0,0,0,5.355v9.516a.417.417,0,0,0,.66.338Z"/><path class="c" d="M19.489,16.343c-1.744-1.248-4.958-3.575-6.876-5.131a.418.418,0,0,0-.536.009c-.376.328-.691.605-.915.806a1.687,1.687,0,0,1-2.326,0c-.223-.2-.537-.478-.914-.805a.415.415,0,0,0-.536-.009C5.475,12.763,2.258,15.092.511,16.343a.417.417,0,0,0-.063.623,1.67,1.67,0,0,0,1.218.535H18.333a1.672,1.672,0,0,0,1.219-.535.417.417,0,0,0-.063-.623Z"/></g></g></svg>