<svg xmlns="http://www.w3.org/2000/svg" xmlns:xlink="http://www.w3.org/1999/xlink" width="60" height="60" viewBox="0 0 60 60"><defs><style>.a,.c{fill:#6f7484;}.a{stroke:#707070;}.b{clip-path:url(#a);}</style><clipPath id="a"><rect class="a" width="60" height="60" transform="translate(925 1088)"/></clipPath></defs><g class="b" transform="translate(-925 -1088)"><path class="c" d="M59.982,15.467l-.269-1.934a1.817,1.817,0,0,0-2.075-1.546L26.182,16.8a6.619,6.619,0,0,1,.739-2.306c.06-.126.121-.262.183-.407l28.85-8.665a1.817,1.817,0,0,0,1.21-2.287l-.587-1.862a1.818,1.818,0,0,0-2.3-1.179l-8.6,2.84A.878.878,0,0,0,46.227,4.6l8.6-2.84a.057.057,0,0,1,.048,0A.056.056,0,0,1,54.9,1.8l.587,1.862a.062.062,0,0,1-.041.078L27.8,12.043c.012-.044.022-.09.033-.134s.02-.081.03-.122c.017-.072.034-.145.051-.217l.03-.138c.015-.069.029-.137.042-.206s.022-.108.032-.163.023-.124.034-.186.022-.128.032-.193c.005-.033.011-.066.016-.1L42.318,5.891a.878.878,0,0,0-.551-1.667L28.014,8.766a1.524,1.524,0,0,0-1.8-.688l-1.446.477a1.521,1.521,0,0,0-1.043,1.327c-.009.108-.02.211-.032.311l-1.933.639a1.52,1.52,0,0,0-1.8-.689l-1.609.531a1.522,1.522,0,0,0-.945.9c-.108.278-.234.55-.358.813l-2.065.682a1.508,1.508,0,0,0-.18-.251,1.526,1.526,0,0,0-1.622-.438l-1.767.584a1.513,1.513,0,0,0-.956.928c-.089.246-.166.5-.236.749l-1.974.652a1.543,1.543,0,0,0-.319-.387,1.511,1.511,0,0,0-1.484-.3L5,15.084a1.532,1.532,0,0,0-1.04,1.3q-.017.168-.031.34l-1.935.639A1.825,1.825,0,0,0,.827,19.633l.137.434a1.813,1.813,0,0,0,.971,1.1,1.809,1.809,0,0,0-.25,1.194l.063.45a1.826,1.826,0,0,0,1.8,1.567,1.861,1.861,0,0,0,.224-.014l1.787-.224a6.324,6.324,0,0,1,.363,2.328,6.481,6.481,0,0,1-.792,3.311A13.112,13.112,0,0,0,4.294,31.9H1.386A1.385,1.385,0,0,0,.007,33.428c.531,5.32,2.856,15.138,12.439,21.343v1.5a2.684,2.684,0,0,0,2.681,2.68H38.008a2.684,2.684,0,0,0,2.68-2.68V54.765c9.574-6.2,11.9-16.019,12.43-21.337A1.385,1.385,0,0,0,51.739,31.9H26.882l.039-.085a11.153,11.153,0,0,0,1.246-5.353,10.951,10.951,0,0,0-1.091-5.022l31.332-3.924a1.817,1.817,0,0,0,1.574-2.054ZM2.638,19.539,2.5,19.105a.062.062,0,0,1,.039-.077l1.365-.451c0,.045.005.088.008.132,0,.027,0,.054.005.081,0,.064.009.128.015.191a.082.082,0,0,0,0,.011c.006.072.011.144.019.215l-1.239.372A.062.062,0,0,1,2.638,19.539Zm.917,3.083a.063.063,0,0,1-.069-.053l-.062-.45a.061.061,0,0,1,.052-.07l1.1-.168.012.03c.032.083.064.164.1.244.005.013.011.027.016.04.036.089.073.175.11.26l0,.009Zm20.38-7.965v0c.091-.269.191-.52.3-.76v0c.1-.239.211-.468.317-.693l.033-.072.051-.109.038-.081c.032-.069.064-.138.095-.208l.013-.028c.028-.063.056-.128.084-.193l.024-.057c.03-.072.06-.146.089-.221l.02-.051q.035-.092.069-.187l.026-.073c.026-.075.05-.151.074-.229.009-.028.017-.057.025-.086.017-.06.034-.12.051-.182l.024-.091q.031-.124.059-.255c0-.013.006-.024.009-.038s0-.011,0-.017a8.1,8.1,0,0,0,.126-.845l.969-.32c-.014.123-.029.245-.047.368,0,.02-.006.039-.009.059-.016.107-.033.212-.052.319-.005.03-.01.06-.016.089-.022.122-.046.244-.071.366l0,.019c-.024.113-.05.225-.078.337l-.026.105c-.028.11-.057.22-.087.33l-.011.039q-.049.169-.1.337l-.021.067q-.058.179-.12.356l-.009.024c-.045.126-.092.251-.141.375v0c-.1.26-.2.493-.3.7a8.191,8.191,0,0,0-.959,4.057c0,.01,0,.018,0,.027h0c0,.1,0,.2,0,.3,0,.064,0,.125.007.186,0,.036,0,.073.005.108,0,.071.008.141.013.209,0,.016,0,.032,0,.048a7.657,7.657,0,0,0,.293,1.625l.005.016q.071.237.153.454l0,.006c.143.38.3.727.471,1.079a9.383,9.383,0,0,1,1.079,4.606,9.385,9.385,0,0,1-1.079,4.606c-.125.267-.254.54-.373.832h-1a13.878,13.878,0,0,1,.586-1.38,8.193,8.193,0,0,0,.959-4.058,8.2,8.2,0,0,0-.959-4.058,12.541,12.541,0,0,1-.662-1.6v0a9.422,9.422,0,0,1-.409-2.591s0,0,0,0c0-.13-.005-.264-.005-.4A9.506,9.506,0,0,1,23.935,14.656ZM20.979,31.82a11.154,11.154,0,0,0,1.246-5.353,10.981,10.981,0,0,0-.783-4.317l1.019-.127c.165.418.339.788.5,1.133a6.478,6.478,0,0,1,.792,3.311,6.481,6.481,0,0,1-.792,3.311,13.072,13.072,0,0,0-.837,2.127H20.94Zm-.291-11.345-.018-.043c-.016-.039-.033-.079-.049-.119s-.029-.072-.043-.108c-.023-.061-.046-.123-.068-.185-.005-.015-.011-.031-.016-.046-.053-.159-.1-.326-.143-.506l1.435-.219c0,.011,0,.021,0,.031q.027.249.062.481c0,.016,0,.033.007.049q.038.244.084.47c0,.013,0,.026.006.038Zm1.03-7.781,1.336-.441-.014.03-.06.129-.018.039c-.127.27-.261.556-.393.868l-.009.021c-.04.1-.08.195-.119.3l-.008.022-1.236.371A11.928,11.928,0,0,0,21.717,12.694Zm-1.36,3.419,1.527-.459a12.577,12.577,0,0,0-.165,1.827l-1.531.234A7.141,7.141,0,0,1,20.357,16.113Zm-2.751.282v-.006a8.435,8.435,0,0,1,.538-2.15l.008-.02c.039-.1.079-.194.119-.287l.02-.046.04-.092.02-.045.057-.126.014-.029.048-.105.135-.29c.126-.268.268-.569.4-.891l1.1-.365a11.535,11.535,0,0,1-.7,1.765l-.018.039c-.008.016-.016.033-.023.05-.019.039-.037.078-.055.118l-.047.1-.033.072-.061.134-.013.03a7.89,7.89,0,0,0-.726,3.553c0,.367.016.7.044,1v.005s0,0,0,.006c0,.043.009.084.014.126s.01.1.016.142.016.119.025.177c0,.021.006.042.009.062A7.228,7.228,0,0,0,19.006,21l.02.049c.008.021.017.04.026.06.02.049.041.1.062.145l.012.027c.079.179.158.349.236.514h0l.028.06a9.385,9.385,0,0,1,1.079,4.606,9.382,9.382,0,0,1-1.079,4.606c-.126.267-.254.54-.374.832h-1a13.987,13.987,0,0,1,.586-1.38,8.191,8.191,0,0,0,.959-4.058,8.2,8.2,0,0,0-.959-4.058c-.146-.309-.293-.622-.429-.959h0a8.449,8.449,0,0,1-.589-2.4v-.008a12.167,12.167,0,0,1-.059-1.234A11.9,11.9,0,0,1,17.606,16.395Zm-.588,6.762a6.483,6.483,0,0,1,.791,3.311,6.486,6.486,0,0,1-.791,3.311A13.087,13.087,0,0,0,16.18,31.9H15l.039-.085a11.149,11.149,0,0,0,1.246-5.353,11.39,11.39,0,0,0-.524-3.6l1.061-.133C16.886,22.876,16.953,23.019,17.018,23.156Zm-2.164-2.434,0,0c-.058-.129-.114-.256-.166-.385l1.286-.2c0,.015.006.029.009.044.025.129.051.255.079.377l.02.083q.045.19.1.368l.008.031-1.116.14-.031-.065-.005-.011C14.97,20.973,14.91,20.847,14.854,20.723Zm-.04-5.748,1.383-.457c-.033.114-.065.234-.095.356L16.1,14.9c-.04.162-.077.331-.111.507,0,.01,0,.021-.006.031-.011.056-.021.11-.031.168l-1.52.456A6.325,6.325,0,0,1,14.814,14.974Zm.962,2.515c0,.1,0,.207,0,.314,0,.2,0,.4.011.586l-1.507.23q-.027-.308-.031-.672Zm-2.322-3.756.015.007-.007.011-.013-.006A.064.064,0,0,1,13.453,13.733Zm-1.865,3.773c0-.059,0-.116.005-.173,0-.035,0-.071,0-.106,0-.069.007-.136.011-.2,0-.022,0-.043,0-.064,0-.07.01-.139.016-.206l0-.049c.006-.07.013-.137.02-.2,0-.013,0-.026,0-.039.021-.188.046-.363.074-.527.007-.04.013-.08.021-.119l.018-.094c.012-.06.024-.12.037-.18a8.008,8.008,0,0,1,.265-.946l1.16-.383a7.9,7.9,0,0,0-.742,3.59,7.908,7.908,0,0,0,.746,3.6v0c.034.075.068.15.1.225l0,.007c.034.075.07.149.1.224l.011.022.128.273.005.012q.071.154.142.315h0a9.106,9.106,0,0,1,.792,3.983,9.391,9.391,0,0,1-1.079,4.606c-.126.267-.254.54-.374.831h-1a13.876,13.876,0,0,1,.587-1.38,8.193,8.193,0,0,0,.959-4.058,8.19,8.19,0,0,0-.959-4.058l-.138-.3h0c-.033-.072-.067-.146-.1-.222l0-.006a8.817,8.817,0,0,1-.658-2.026l0-.01a10.568,10.568,0,0,1-.173-1.771h0c0-.09,0-.181,0-.274S11.586,17.6,11.588,17.507ZM11.2,23.432a6.235,6.235,0,0,1,.663,3.035,6.486,6.486,0,0,1-.792,3.311,13.112,13.112,0,0,0-.838,2.127H9.053l.04-.085a11.154,11.154,0,0,0,1.246-5.353,12.055,12.055,0,0,0-.32-2.886Zm-.971-2.418.009.029q.049.174.1.338l.012.036q.056.17.114.331l0,.006-1.028.129v0c-.106-.247-.214-.478-.317-.7Zm-.327-1.726-.248.038.244-.073C9.9,19.265,9.9,19.277,9.906,19.289Zm-1.6-1.81c0-.014,0-.028,0-.042q.005-.154.016-.3v-.019L9.878,16.6c0,.023,0,.048-.005.071,0,.056-.008.112-.011.168q-.01.158-.017.32c0,.057-.005.115-.006.173,0,.035,0,.07,0,.105L8.3,17.9c0-.033,0-.064,0-.1C8.3,17.692,8.3,17.584,8.307,17.478ZM5.789,19.694s0-.006,0-.009c-.049-.288-.086-.586-.11-.9,0-.005,0-.011,0-.016-.005-.065-.01-.131-.013-.2l0-.072c0-.049-.005-.1-.007-.15,0-.027,0-.055,0-.083,0-.051,0-.1,0-.156,0-.025,0-.05,0-.076,0-.078,0-.156,0-.235s0-.151,0-.226c0-.055,0-.109,0-.163.007-.243.021-.481.041-.71l.948-.313c-.011.073-.019.149-.027.224,0,.025-.006.049-.009.074-.009.087-.016.178-.023.268,0,.03-.005.06-.007.09-.006.089-.01.18-.014.272,0,.033,0,.065,0,.1q-.006.188-.006.385t.005.364A7.851,7.851,0,0,0,7.384,21.6l.012.027.108.231.005.011c.044.094.089.19.134.287l0,.005c.141.306.282.624.409.974h0a9.361,9.361,0,0,1,.528,3.328A9.385,9.385,0,0,1,7.5,31.073c-.126.267-.254.54-.374.832h-1a13.876,13.876,0,0,1,.587-1.38,8.2,8.2,0,0,0,.959-4.058,8.188,8.188,0,0,0-.956-4.053l0-.005-.073-.156L6.622,22.2l-.077-.167L6.528,22c-.027-.06-.054-.121-.082-.183l-.01-.023q-.043-.1-.086-.2l0-.009a8.961,8.961,0,0,1-.334-.929l0-.006A8.289,8.289,0,0,1,5.789,19.694ZM51.328,33.66c-.58,5.106-2.894,14.058-11.711,19.706H21.653a.878.878,0,0,0,0,1.756h17.28v1.151a.926.926,0,0,1-.925.925H15.126a.926.926,0,0,1-.925-.925V55.122h3.367a.878.878,0,1,0,0-1.756h-4.06C4.691,47.718,2.377,38.767,1.8,33.66Zm6.9-17.9a.06.06,0,0,1-.042.024L26.372,19.764a5.98,5.98,0,0,1-.211-1.185L57.9,13.723a.059.059,0,0,1,.046.012.058.058,0,0,1,.024.041l.269,1.934A.058.058,0,0,1,58.232,15.755Zm0,0" transform="translate(925 1088.523)"/></g></svg>