<svg xmlns="http://www.w3.org/2000/svg" xmlns:xlink="http://www.w3.org/1999/xlink" width="20" height="20" viewBox="0 0 20 20"><defs><style>.a,.c{fill:#fff;}.a{stroke:#707070;}.b{clip-path:url(#a);}</style><clipPath id="a"><rect class="a" width="20" height="20" transform="translate(455 6826)"/></clipPath></defs><g class="b" transform="translate(-455 -6826)"><g transform="translate(455.001 6826)"><g transform="translate(-0.345)"><path class="c" d="M8.626,11.718A8.071,8.071,0,0,1,6.189,7.135a.685.685,0,0,1,.2-.574L7.931,5.017a.69.69,0,0,0,.1-.853L5.568.345A.69.69,0,0,0,4.675.093L.727,1.953a.686.686,0,0,0-.379.685A19.086,19.086,0,0,0,6.159,14.183,19.08,19.08,0,0,0,17.7,20a.686.686,0,0,0,.685-.379l1.86-3.948a.69.69,0,0,0-.25-.892L16.18,12.317a.69.69,0,0,0-.853.1l-1.544,1.545a.685.685,0,0,1-.574.2,8.071,8.071,0,0,1-4.582-2.437Z"/><path class="c" d="M15.172,0C12.315,0,10,2.007,10,4.482a4.054,4.054,0,0,0,.879,2.5l-.534,2.672L13.056,8.57a5.827,5.827,0,0,0,2.116.4c2.856,0,5.172-2.007,5.172-4.482S18.028,0,15.172,0ZM12.413,5.172a.69.69,0,1,1,.69-.69A.69.69,0,0,1,12.413,5.172Zm2.758,0a.69.69,0,1,1,.69-.69A.69.69,0,0,1,15.172,5.172Zm2.758,0a.69.69,0,1,1,.69-.69A.69.69,0,0,1,17.93,5.172Z"/></g></g></g></svg>