<svg xmlns="http://www.w3.org/2000/svg" xmlns:xlink="http://www.w3.org/1999/xlink" width="90" height="90" viewBox="0 0 90 90"><defs><style>.a,.c{fill:#6f7484;}.a{stroke:#707070;}.b{clip-path:url(#a);}</style><clipPath id="a"><rect class="a" width="90" height="90" transform="translate(921 1148)"/></clipPath></defs><g class="b" transform="translate(-921 -1148)"><g transform="translate(921 1148)"><path class="c" d="M85.224,27.769H69.962a4.783,4.783,0,0,0-4.777,4.779V50.115H59.476a13.113,13.113,0,0,0,.358-4.1h0c-.124-6.69-1.338-12.328-3.608-16.759a17.982,17.982,0,0,0-5.586-6.734,12.225,12.225,0,0,0,3.27-8.657,11.186,11.186,0,1,0-22.369,0,1.318,1.318,0,0,0,1.318,1.318h.9a9.283,9.283,0,0,0-.126,1.519,9.154,9.154,0,0,0,7.355,8.967,22.22,22.22,0,0,0-.656,5.735l-3.288,2.828-8,.647L19.81,31.832a2.8,2.8,0,0,0-2.636,0,2.342,2.342,0,0,0-.82,1.967v6.862a1.318,1.318,0,0,0,1.318,1.318h1.57L16.834,50.3a1.318,1.318,0,0,0,2.533.733l2.62-9.052h3.748c-4.662,14.216-2,23.7,2.087,33.308h-2.37L15.581,64.251l2.087-7.211a1.318,1.318,0,0,0-2.533-.733l-2,6.9A13.261,13.261,0,0,0,.034,73.483a1.318,1.318,0,0,0,.989,1.58l1.872.431A10.087,10.087,0,0,0,22.389,79.98l1.477.34a1.721,1.721,0,0,0,1.274-.071,1.514,1.514,0,0,0,.743-1.011,13.115,13.115,0,0,0,.213-1.313H53.667a11.234,11.234,0,0,0,22.234,0h1.006l.245,0a1.806,1.806,0,0,0,1.369-.5,1.69,1.69,0,0,0,.466-1.282,14.945,14.945,0,0,0-.54-3.571c1.05-6.375.04-10.258-1.458-13.3a3.471,3.471,0,0,0,1.575-2.905V52.751h6.659A4.783,4.783,0,0,0,90,47.972V32.548a4.783,4.783,0,0,0-4.776-4.779ZM16.889,82.777a7.4,7.4,0,0,1-5.623.948h0a7.47,7.47,0,0,1-5.775-7.631l14.3,3.291a7.411,7.411,0,0,1-2.9,3.392Zm6.6-5.25L2.978,72.808a10.617,10.617,0,0,1,10.5-6.956L23.521,77.085Q23.508,77.307,23.486,77.527ZM43.4,54.553a11.737,11.737,0,0,0-.383,3.976V63.5H38.189V56.679c0-7.716,4.211-9.092,6.1-9.319H57.216a5.589,5.589,0,0,1-1.2,3.786c-.874.921-2.37,1.369-4.574,1.371l-4.732,0a3.176,3.176,0,0,0-3.313,2.03Zm-.383,11.588v3.148h-9.4a3.757,3.757,0,0,1,.909-2.255,3.253,3.253,0,0,1,2.347-.893ZM57.158,44.724H45.168A49.228,49.228,0,0,1,43.9,39.845l3.645-2.366a5.441,5.441,0,0,0,2.84-5.01,4.661,4.661,0,0,0-2.9-3.816,4.759,4.759,0,0,0-4.425.487A15.566,15.566,0,0,1,43.7,25.8a9.293,9.293,0,0,0,1.668-.329,10.922,10.922,0,0,0,3.077-1.22c2.539,1.517,8.124,6.437,8.715,20.474ZM34.274,12.549a8.535,8.535,0,0,1,17,1.318c0,3.933-1.886,7.1-4.927,8.5V15.429A2.623,2.623,0,0,0,43.7,12.555q-.06-.006-.12-.005Zm1.991,4.156a6.565,6.565,0,0,1,.176-1.519h7.071c.081.009.141.018.183.027a1.568,1.568,0,0,1,.013.216v7.713a6.521,6.521,0,0,1-.946.07h-.009a6.508,6.508,0,0,1-6.488-6.506ZM34.557,37.082l3.123-.253a1.319,1.319,0,0,0,.754-.314l5.636-4.847h0a2.619,2.619,0,0,1,1.693-.71,2.029,2.029,0,0,1,2,1.769,2.908,2.908,0,0,1-1.652,2.542l-6.28,4.076H34.557V37.082Zm-5.572.451L31.92,37.3v2.048H28.51c-.442,0-.55-.367-.563-.676A1.047,1.047,0,0,1,28.985,37.533Zm-3.12-.91a3.808,3.808,0,0,0-.486,2.71s0,.007,0,.011H18.991V34.338l6.879,2.274-.005.01Zm2.652,5.357H40.224a1.318,1.318,0,0,0,.718-.213l.6-.387c.287,1.269.614,2.5.97,3.67-2.689.794-6.957,3.358-6.957,11.629v6.958a5.5,5.5,0,0,0-2.935,1.576,6.43,6.43,0,0,0-1.648,4.076H28.31c-2.68-7.724-3.7-15.942.207-27.309Zm2.173,33.3c-.487-1.121-.957-2.237-1.4-3.358H42.98c1.774,0,2.674-.808,2.674-2.4V59.848H56.059a1.318,1.318,0,1,0,0-2.637h-10.4a5.968,5.968,0,0,1,.2-1.723c.067-.176.124-.328.848-.328l4.733,0c2.965,0,5.085-.72,6.484-2.193.065-.068.126-.14.187-.211h17.81v3.623a.846.846,0,0,1-.834.836H61.969a1.318,1.318,0,0,0,0,2.637h12.35a15.565,15.565,0,0,1,1.924,8.143,14.308,14.308,0,0,0-21.792-1.7,14.524,14.524,0,0,0-4.145,9ZM64.784,84.9a8.687,8.687,0,0,1-8.438-6.978H73.223A8.688,8.688,0,0,1,64.784,84.9Zm9.936-9.615H52.955A11.826,11.826,0,0,1,64.62,64.675a11.7,11.7,0,0,1,11.219,8.383c0,.015.009.031.015.046a12.169,12.169,0,0,1,.435,2.184ZM87.364,47.972a2.144,2.144,0,0,1-2.14,2.142h-17.4V43.307H87.364Zm0-7.3H67.822v-2.8H87.364Zm0-5.441H67.822V32.548a2.144,2.144,0,0,1,2.14-2.142H85.224a2.144,2.144,0,0,1,2.14,2.142Z"/></g></g></svg>