<svg xmlns="http://www.w3.org/2000/svg" xmlns:xlink="http://www.w3.org/1999/xlink" width="60" height="60" viewBox="0 0 60 60"><defs><style>.a,.c{fill:#ec0d28;}.a{stroke:#707070;}.b{clip-path:url(#a);}</style><clipPath id="a"><rect class="a" width="60" height="60" transform="translate(920 1088)"/></clipPath></defs><g class="b" transform="translate(-920 -1088)"><g transform="translate(925.441 1088)"><path class="c" d="M48.11.98A3.493,3.493,0,0,0,45.523,0,58.98,58.98,0,0,0,.78,23.608a3.524,3.524,0,0,0,.839,5.022l4.719,3.215h0l2.8,1.909V36.2a1.172,1.172,0,1,0,2.344,0V33.135a1.173,1.173,0,0,0-.512-.969L8.64,30.578a49.285,49.285,0,0,1,3.328-4.137,46.655,46.655,0,0,1,3.876-3.853,48.537,48.537,0,0,1,8.738-6.178,46.675,46.675,0,0,1,4.937-2.375q.317-.13.637-.258A6.373,6.373,0,1,0,42.078,10.73q2.376-.294,4.774-.351V39.84a6.365,6.365,0,0,0,0,12.045v4.731l-5.508-3.753a1.172,1.172,0,0,0-1.832.969v2.717a1.076,1.076,0,0,1-2.152,0V50.768a1.178,1.178,0,0,0-.076-.414,6.369,6.369,0,1,0-10.323-7.291l-1.586-1.081a1.172,1.172,0,0,0-1.832.968v4.507a1.076,1.076,0,0,1-2.152,0V39.887a1.173,1.173,0,0,0-.512-.969l-5.412-3.687a1.172,1.172,0,0,0-1.832.968V51.862a1.076,1.076,0,1,1-2.152,0V45.575a1.172,1.172,0,0,0-2.344,0v6.287a3.42,3.42,0,1,0,6.84,0V38.416l3.068,2.09v6.951a3.42,3.42,0,0,0,6.84,0v-2.29l.97.661h0L34.885,51.3l.131.089v5.161a3.42,3.42,0,0,0,6.84,0v-.5L47.364,59.8a1.183,1.183,0,0,0,1.832-.969V3.525A3.5,3.5,0,0,0,48.11.98Zm-19.2,43.411a3.987,3.987,0,0,1,2.075-2.03,4.028,4.028,0,0,1,4.486,6.5l-4.336-2.954ZM2.439,25.912a1.171,1.171,0,0,1,.218-.9A56.633,56.633,0,0,1,45.622,2.345h.052a1.18,1.18,0,0,1,1.178,1.181V8.032a50.87,50.87,0,0,0-5.6.44c-.53.071-1.06.146-1.587.233a50.594,50.594,0,0,0-8.351,2.128A52.587,52.587,0,0,0,25.7,13.187a48.392,48.392,0,0,0-5.372,3.046,52.642,52.642,0,0,0-4.877,3.6,51.44,51.44,0,0,0-4.452,4.2,50.1,50.1,0,0,0-3.851,4.615q-.224.3-.443.607L2.939,26.693A1.17,1.17,0,0,1,2.439,25.912ZM40.27,15.348a4.027,4.027,0,0,1-7.647-2.473,46.932,46.932,0,0,1,5.369-1.463c.5-.1.993-.2,1.491-.291a4.029,4.029,0,0,1,.786,4.227Zm4.952,32.107a4.028,4.028,0,0,1,1.63-5.047v6.911A4.016,4.016,0,0,1,45.222,47.455Zm0,0" transform="translate(-0.078 0)"/><path class="c" d="M24.547,42.094a6.371,6.371,0,1,0-3.495-3.4A6.366,6.366,0,0,0,24.547,42.094Zm-1.383-7.409a4.027,4.027,0,1,1,.042,3.082A4,4,0,0,1,23.164,34.685Zm0,0" transform="translate(-5.191 -7.45)"/><path class="c" d="M47.693,45.3A6.371,6.371,0,1,0,44.2,41.9,6.357,6.357,0,0,0,47.693,45.3ZM46.31,37.887a4.026,4.026,0,1,1,.042,3.082A4,4,0,0,1,46.31,37.887Zm0,0" transform="translate(-10.978 -8.251)"/><path class="c" d="M13.333,55.3a1.172,1.172,0,1,0-1.147-.934A1.184,1.184,0,0,0,13.333,55.3Zm0,0" transform="translate(-3.099 -13.24)"/></g></g></svg>