<svg xmlns="http://www.w3.org/2000/svg" xmlns:xlink="http://www.w3.org/1999/xlink" width="90" height="90" viewBox="0 0 90 90"><defs><style>.a,.c{fill:#6f7484;}.a{stroke:#707070;}.b{clip-path:url(#a);}</style><clipPath id="a"><rect class="a" width="90" height="90" transform="translate(921 1118)"/></clipPath></defs><g class="b" transform="translate(-921 -1118)"><g transform="translate(919.549 1116.558)"><path class="c" d="M86.955,39.453a23.431,23.431,0,0,0,1.789-24.736,24.848,24.848,0,0,0-43.966,0,23.91,23.91,0,0,0-2.67,9.956H2.9a1.451,1.451,0,0,0-1.451,1.451V36.283a8.683,8.683,0,0,0,2.9,6.473V82.726H2.9a1.45,1.45,0,0,0-1.451,1.451v5.805A1.45,1.45,0,0,0,2.9,91.433H75.469a1.45,1.45,0,0,0,1.451-1.451V84.177a1.45,1.45,0,0,0-1.451-1.451H74.018V56.634Zm-39.6-23.407a21.948,21.948,0,0,1,38.808,0,20.567,20.567,0,0,1-1.551,21.692L66.761,61.446l-5.805-7.709V53.7h-.029l-12-15.93a20.585,20.585,0,0,1-1.573-21.723Zm17.953,48.3v9.675H39.186V56.6H59.48ZM44.937,36.82a5.79,5.79,0,0,1-11.557-.537V27.575H42.16A23.534,23.534,0,0,0,44.937,36.82Zm-26.07-9.245H30.478v8.708a5.805,5.805,0,1,1-11.611,0Zm-14.513,0H15.965v8.708a5.805,5.805,0,1,1-11.611,0ZM74.018,88.531H4.354v-2.9H74.018Zm-43.54-5.805H13.062V62.407H30.478Zm40.637,0H33.38V60.956A1.45,1.45,0,0,0,31.929,59.5H11.611a1.45,1.45,0,0,0-1.451,1.451v21.77h-2.9V44.483a8.66,8.66,0,0,0,10.159-3.4,8.7,8.7,0,0,0,14.513,0,8.692,8.692,0,0,0,15.092-1.03L57.294,53.7H37.734a1.45,1.45,0,0,0-1.451,1.451V75.469a1.45,1.45,0,0,0,1.451,1.451H66.761a1.45,1.45,0,0,0,1.451-1.451V64.343l2.9-3.855Z"/><path class="c" d="M31.929,47.894H11.611a1.45,1.45,0,0,0-1.451,1.451V55.15A1.45,1.45,0,0,0,11.611,56.6H31.929A1.45,1.45,0,0,0,33.38,55.15V49.345A1.45,1.45,0,0,0,31.929,47.894ZM30.478,53.7H13.062V50.8H30.478Z"/><path class="c" d="M66.761,44.991A18.867,18.867,0,1,0,47.894,26.124,18.889,18.889,0,0,0,66.761,44.991Zm4.354-20.319c0-1.772.859-2.9,1.451-2.9s1.451,1.131,1.451,2.9-.859,2.9-1.451,2.9S71.115,26.445,71.115,24.673ZM66.761,10.159a15.954,15.954,0,0,1,7.257,30.167V30.134c1.7-.784,2.9-2.891,2.9-5.461,0-3.255-1.911-5.805-4.354-5.805s-4.354,2.55-4.354,5.805c0,2.57,1.2,4.678,2.9,5.461V41.47a15.64,15.64,0,0,1-8.708,0V30.478a2.906,2.906,0,0,0,2.9-2.9V18.867h-2.9v8.708H59.5V18.867H56.6v8.708a2.906,2.906,0,0,0,2.9,2.9v9.849a15.954,15.954,0,0,1,7.257-30.167Z"/></g></g></svg>