<svg xmlns="http://www.w3.org/2000/svg" xmlns:xlink="http://www.w3.org/1999/xlink" width="60" height="60" viewBox="0 0 60 60"><defs><style>.a,.c{fill:#6f7484;}.a{stroke:#707070;}.b{clip-path:url(#a);}</style><clipPath id="a"><rect class="a" width="60" height="60" transform="translate(925 1088)"/></clipPath></defs><g class="b" transform="translate(-925 -1088)"><g transform="translate(925 1088)"><path class="c" d="M59,35.145V32.452a2.5,2.5,0,0,0-2.5-2.5.5.5,0,0,1-.5-.5v-1a2.5,2.5,0,0,0-2.5-2.5H52.17a.491.491,0,0,1-.48-.386l-.477-1.878a1.973,1.973,0,0,0-.909-1.24,2.007,2.007,0,0,0-1.514-.227,1.973,1.973,0,0,1-2.421-1.534l-.045-.216,12.448-9.1A3,3,0,1,0,55.23,6.534L42.089,16.141a5.173,5.173,0,0,0-1.3-.19h-1.58a3.02,3.02,0,0,1-.681-.085l9.047-10.9A3,3,0,1,0,42.97,1.132L31.176,15.345a2.96,2.96,0,0,1-2.377-.4,5.988,5.988,0,0,0-3.3-1h-.43a2.975,2.975,0,0,0-2.49,1.333,1.548,1.548,0,0,1-2.154.413A2.39,2.39,0,0,0,17.532,16l-.9.9a4.152,4.152,0,0,0-.746,1.036,1.851,1.851,0,0,1-1.637,1.011A3.254,3.254,0,0,0,11,22.2a.2.2,0,0,1-.117.186L8.853,23.4a3.4,3.4,0,0,0-1.86,3.019l-1.209.809A4,4,0,0,0,4,30.562v.39a2,2,0,0,0-2,2v2H1.761a1.761,1.761,0,0,0-1.424,2.8l.322.787A36.311,36.311,0,0,0,15,55.513v1.552a2.89,2.89,0,0,0,2.887,2.887H42.113A2.891,2.891,0,0,0,45,57.065V55.513A36.313,36.313,0,0,0,59.34,38.54l.323-.791a1.761,1.761,0,0,0,.192-1.735A1.743,1.743,0,0,0,59,35.145Zm-2.584-27a.97.97,0,0,1,.73-.182.986.986,0,0,1,.652.394,1.015,1.015,0,0,1,.2.6,1,1,0,0,1-.411.8L32.276,28.269l-.971.324a.964.964,0,0,1-.612,0L29.228,28.1c-.03-.01-.06-.01-.09-.019ZM39.209,17.951h.4L32.46,23.18l4.7-5.67A4.99,4.99,0,0,0,39.209,17.951Zm5.3-15.545a.986.986,0,0,1,.672-.356,1,1,0,0,1,.856,1.632L25.854,28.009l-1.254.916c-.011-.01-.025-.014-.035-.024a2.963,2.963,0,0,0-1.388-.784ZM4,32.952a2,2,0,0,0,2-2v-.39a2,2,0,0,1,.9-1.669l1.215-.814A2.014,2.014,0,0,0,9,26.411a1.4,1.4,0,0,1,.757-1.226l2.011-1.006A2.212,2.212,0,0,0,13,22.2a1.254,1.254,0,0,1,1.25-1.25,3.864,3.864,0,0,0,3.418-2.1,2.179,2.179,0,0,1,.379-.533l.9-.9a.364.364,0,0,1,.393-.042,3.532,3.532,0,0,0,4.9-.984.986.986,0,0,1,.825-.441h.43a3.985,3.985,0,0,1,2.193.661,4.964,4.964,0,0,0,1.818.74L20.2,28.575a.95.95,0,0,1-.485-.087,2.964,2.964,0,0,0-3.424.556l-1,1a1,1,0,0,0,1.414,1.414l1-1a.967.967,0,0,1,1.119-.18,2.945,2.945,0,0,0,2.266.161l1.074-.358a.96.96,0,0,1,.99.233,2.975,2.975,0,0,0,3.744.371l.858-.572A.968.968,0,0,1,28.6,30l1.465.488a2.979,2.979,0,0,0,1.876,0L33.4,30a.977.977,0,0,1,.842.113l2.2,1.466a1,1,0,0,0,1.109-1.664l-2.167-1.445L44.6,21.734a3.983,3.983,0,0,0,3.712,2.547,4.273,4.273,0,0,0,.961-.114l.477,1.876a2.481,2.481,0,0,0,2.423,1.908H53.5a.5.5,0,0,1,.5.5v1a2.5,2.5,0,0,0,2.5,2.5.5.5,0,0,1,.5.5v2.5H4Zm53.49,4.831A34.329,34.329,0,0,1,43.7,53.952H41a1,1,0,0,0,0,2h2v1.113a.888.888,0,0,1-.887.887H17.887A.888.888,0,0,1,17,57.065V55.952H29a1,1,0,1,0,0-2H16.3A34.277,34.277,0,0,1,2.51,37.78l-.339-.828H57.828Z"/><path class="c" d="M44,50.95h0a1,1,0,0,0,.5-.135,24.765,24.765,0,0,0,9.416-10.472,1,1,0,0,0-1.84-.783A22.578,22.578,0,0,1,43.474,49.1l0,0A1,1,0,0,0,44,50.95Z"/></g></g></svg>