<svg xmlns="http://www.w3.org/2000/svg" xmlns:xlink="http://www.w3.org/1999/xlink" width="60" height="60" viewBox="0 0 60 60"><defs><style>.a,.c{fill:#6f7484;}.a{stroke:#707070;}.b{clip-path:url(#a);}</style><clipPath id="a"><rect class="a" width="60" height="60" transform="translate(925 1088)"/></clipPath></defs><g class="b" transform="translate(-925 -1088)"><g transform="translate(925 1088)"><path class="c" d="M57.968,54.57l-.222-.222.776-2.717A6.457,6.457,0,0,0,55.2,44.087l-.473-.236a.886.886,0,0,1-.31-1.329,2.887,2.887,0,0,0-1.9-4.59l-2.685-.384A1.1,1.1,0,0,1,48.9,36.47a3.089,3.089,0,0,0-3.7-3.03l-1.647.33.2.98-.3-1.069V31.739a2.092,2.092,0,0,0-2.09-2.091H39.175a.09.09,0,0,1-.09-.089h0a2.093,2.093,0,0,0-2.091-2.091H32.249l-1.908-3.074A13.491,13.491,0,0,0,17.422,3.58L16.133,1.5A3.18,3.18,0,0,0,11.754.478l-.088.057L7.026,3.629l-.5-.5a3.13,3.13,0,0,0-3.466-.689A3.131,3.131,0,0,0,1.1,5.382V56.819A3.184,3.184,0,0,0,4.282,60H55.719a3.181,3.181,0,0,0,2.249-5.43Zm-20.973-25.1a.091.091,0,0,1,.091.091,2.092,2.092,0,0,0,2.09,2.09h2.182a.091.091,0,0,1,.09.091v1.941a2.091,2.091,0,0,0,2.5,2.05l1.647-.33a1.09,1.09,0,0,1,1.3,1.069,3.106,3.106,0,0,0,2.653,3.059l2.686.384a.887.887,0,0,1,.579,1.414,2.886,2.886,0,0,0,1.02,4.314l.473.236A4.455,4.455,0,0,1,56.6,51.082l-.471,1.648L34.512,31.114,33.49,29.468h3.5ZM19,5.479a11.553,11.553,0,0,1,11.54,11.54,11.4,11.4,0,0,1-1.386,5.467L18.61,5.495C18.742,5.49,18.866,5.479,19,5.479ZM12.776,2.2a1.181,1.181,0,0,1,1.638.329l.02.031,1.629,2.625.015.024,12.228,19.7L8.468,5.071ZM56.554,57.654a1.181,1.181,0,0,1-.835.346H4.282A1.182,1.182,0,0,1,3.1,56.819V5.382A1.157,1.157,0,0,1,3.83,4.291,1.275,1.275,0,0,1,4.3,4.2a1.124,1.124,0,0,1,.814.35L56.554,55.984A1.181,1.181,0,0,1,56.554,57.654Z"/><path class="c" d="M10.663,13.982a1,1,0,0,0-1.414,0L6.936,16.3A1,1,0,0,0,7.643,18h0a1,1,0,0,0,.707-.293L10.663,15.4A1,1,0,0,0,10.663,13.982Z"/><path class="c" d="M15.289,18.608a1,1,0,0,0-1.414,0l-7.71,7.711a1,1,0,0,0,.707,1.707h0a1,1,0,0,0,.707-.293l7.71-7.711A1,1,0,0,0,15.289,18.608Z"/><path class="c" d="M19.915,23.235a1,1,0,0,0-1.414,0L6.165,35.571a1,1,0,0,0,.707,1.707h0a1,1,0,0,0,.707-.293L19.915,24.649A1,1,0,0,0,19.915,23.235Z"/><path class="c" d="M24.542,27.861a1,1,0,0,0-1.414,0L7.707,43.281a1,1,0,0,0,0,1.414h0a1,1,0,0,0,1.414,0h0L24.542,29.275A1,1,0,0,0,24.542,27.861Z"/><path class="c" d="M47.673,50.992a1,1,0,0,0-1.414,0L43.946,53.3a1,1,0,0,0,.707,1.707h0a1,1,0,0,0,.707-.293l2.312-2.312A1,1,0,0,0,47.673,50.992Z"/><path class="c" d="M43.047,46.365a1,1,0,0,0-1.414,0l-7.71,7.711a1,1,0,0,0,0,1.414h0a1,1,0,0,0,1.414,0h0l7.71-7.711A1,1,0,0,0,43.047,46.365Z"/><path class="c" d="M38.421,41.739a1,1,0,0,0-1.414,0L24.67,54.076a1,1,0,0,0,0,1.414h0a1,1,0,0,0,1.414,0h0L38.421,43.153A1,1,0,0,0,38.421,41.739Z"/><path class="c" d="M33.794,37.113a1,1,0,0,0-1.414,0L16.959,52.534a1,1,0,0,0,0,1.414h0a1,1,0,0,0,1.414,0h0L33.794,38.528A1,1,0,0,0,33.794,37.113Z"/><path class="c" d="M29.168,32.487a1,1,0,0,0-1.414,0L10.02,50.221a1,1,0,0,0,0,1.414h0a1,1,0,0,0,1.414,0h0L29.168,33.9A1,1,0,0,0,29.168,32.487Z"/></g></g></svg>