<svg xmlns="http://www.w3.org/2000/svg" xmlns:xlink="http://www.w3.org/1999/xlink" width="60" height="60" viewBox="0 0 60 60"><defs><style>.a,.c{fill:#6f7484;}.a{stroke:#707070;}.b{clip-path:url(#a);}</style><clipPath id="a"><rect class="a" width="60" height="60" transform="translate(925 1088)"/></clipPath></defs><g class="b" transform="translate(-925 -1088)"><g transform="translate(925 1093.264)"><path class="c" d="M28.178,39.856a.879.879,0,0,0-.879.879v1.459a.879.879,0,1,0,1.758,0V40.735A.879.879,0,0,0,28.178,39.856Zm0,0"/><path class="c" d="M17.066,39.856a.879.879,0,0,0-.879.879v1.459a.879.879,0,1,0,1.758,0V40.735A.879.879,0,0,0,17.066,39.856Zm0,0"/><path class="c" d="M24.44,41.064a.9.9,0,0,0-1.217.252.725.725,0,0,1-.6.324.71.71,0,0,1-.6-.324.879.879,0,0,0-1.469.965,2.476,2.476,0,0,0,4.139,0A.878.878,0,0,0,24.44,41.064Zm0,0"/><path class="c" d="M18.58,31.872a.879.879,0,0,0,.824-1.553c-.649-.344-1.036-.773-1.036-1.148s.387-.8,1.036-1.149a7.127,7.127,0,0,1,3.218-.695,7.129,7.129,0,0,1,3.219.695c.649.344,1.036.773,1.036,1.149s-.388.8-1.036,1.148a7.129,7.129,0,0,1-3.219.7.879.879,0,1,0,0,1.758c3.428,0,6.013-1.549,6.013-3.6s-2.585-3.6-6.013-3.6-6.013,1.548-6.013,3.6A3.173,3.173,0,0,0,18.58,31.872Zm0,0"/><path class="c" d="M56.528,18.61a24.6,24.6,0,0,0-17.559-3.963l5.093-3.926a3.034,3.034,0,0,0-3.535-4.928l-3,2L39.6,4.84a3.034,3.034,0,0,0-4.841-3.654L19.866,19.555l-3.852,2.566a12.047,12.047,0,0,0-5.427,3.615l-8.52,5.675a4.632,4.632,0,0,0-1.2,6.555A4.528,4.528,0,0,0,4.621,39.9a4.607,4.607,0,0,0,1.843,3.8,4.473,4.473,0,0,0,3.944.789,9.29,9.29,0,0,0,3.026,2.688,18.48,18.48,0,0,0,9.189,2.239,18.483,18.483,0,0,0,9.189-2.239,8.587,8.587,0,0,0,3.478-3.456,4.175,4.175,0,0,0,4.152-.6.506.506,0,0,1,.627,0,4.493,4.493,0,0,0,5.295,0,.525.525,0,0,1,.628,0,4.5,4.5,0,0,0,6.755-1.8A.526.526,0,0,1,53.207,41a4.493,4.493,0,0,0,4.279-5.154.545.545,0,0,1,.222-.518,4.465,4.465,0,0,0,1.786-3.554,4.387,4.387,0,0,0-.7-2.394A7.946,7.946,0,0,0,56.528,18.61Zm-13.51-2.488a11.278,11.278,0,0,1,.915,5.612,1.241,1.241,0,0,1-1.347,1.12,1.267,1.267,0,0,1-1.119-1.359,8.931,8.931,0,0,0-1.185-5.246C41.086,16.163,42.917,16.121,43.018,16.122Zm-4.65.413a7.144,7.144,0,0,1,1.345,4.822,2.783,2.783,0,0,0,2.987,3.26,3,3,0,0,0,2.982-2.722,13.054,13.054,0,0,0-.728-5.666,22.7,22.7,0,0,1,3.8.7,7.2,7.2,0,0,1,.108,4.734,2.974,2.974,0,0,0,1.9,3.777,2.871,2.871,0,0,0,3.788-1.9c.1-.291.184-.587.259-.881a.879.879,0,1,0-1.7-.437c-.065.255-.141.512-.224.764a1.241,1.241,0,0,1-1.566.786,1.266,1.266,0,0,1-.782-1.577,9.031,9.031,0,0,0,.235-4.608,22.855,22.855,0,0,1,4.762,2.476,6.188,6.188,0,0,1,1.637,8.586c-1.154,1.7-4.982,4-8.6,1.63a10.541,10.541,0,0,0-11.738.008,6.208,6.208,0,0,1-.972.54V29.171a5.5,5.5,0,0,0-.843-2.893,3,3,0,0,0,2.307-3.489,13.067,13.067,0,0,0-2.216-5.172A30.019,30.019,0,0,1,38.368,16.535ZM33.31,18.146a11.294,11.294,0,0,1,2.3,4.973,1.241,1.241,0,0,1-.985,1.449,1.266,1.266,0,0,1-1.452-1,9.074,9.074,0,0,0-2.129-4.238A22.866,22.866,0,0,1,33.31,18.146Zm-3.759,2.168a7.235,7.235,0,0,1,1.626,2.638,15.91,15.91,0,0,0-2.986-1.157A6.139,6.139,0,0,1,29.551,20.314Zm6.57-18.02A1.276,1.276,0,0,1,38.158,3.83l-4.667,6.649-8.706,5.8ZM41.5,7.256a1.276,1.276,0,0,1,1.487,2.073l-8.25,6.361A24.583,24.583,0,0,0,28.9,18.61a7.906,7.906,0,0,0-2.514,2.775,26.466,26.466,0,0,0-5.744-.238ZM14.32,24.814a16.714,16.714,0,0,1,8.3-2,16.714,16.714,0,0,1,8.3,2c2.055,1.2,3.187,2.749,3.187,4.356s-1.132,3.154-3.187,4.357a16.714,16.714,0,0,1-8.3,2,16.714,16.714,0,0,1-8.3-2c-2.055-1.2-3.187-2.749-3.187-4.357S12.265,26.016,14.32,24.814ZM2.3,36.942a3.024,3.024,0,0,1,.742-4.067L9.4,28.635c-.018.177-.028,6.605-.028,6.605l-2.986,2.3C5.766,38.023,3.522,38.819,2.3,36.942Zm4.119,2.6c.369-.154,2.959-2.083,2.959-2.083V41.3a5.271,5.271,0,0,0,.234,1.551C6.993,43,6.177,41.261,6.417,39.544Zm24.506,6.113a16.714,16.714,0,0,1-8.3,2,16.714,16.714,0,0,1-8.3-2c-2.055-1.2-3.187-2.749-3.187-4.356V33.253a10.248,10.248,0,0,0,2.3,1.791,18.48,18.48,0,0,0,9.189,2.239,18.483,18.483,0,0,0,9.189-2.239,10.229,10.229,0,0,0,2.3-1.791V41.3C34.11,42.908,32.979,44.455,30.923,45.657ZM56.648,33.923a2.406,2.406,0,0,0-.9,2.179,2.735,2.735,0,0,1-2.606,3.138,2.274,2.274,0,0,0-2,1.358,2.742,2.742,0,0,1-2.5,1.624,2.712,2.712,0,0,1-1.611-.525,2.283,2.283,0,0,0-2.7,0,2.736,2.736,0,0,1-3.222,0,2.326,2.326,0,0,0-2.7,0,2.909,2.909,0,0,1-2.589.345c.035-.244.053-9.331.053-9.331a7.936,7.936,0,0,0,1.961-.97,8.787,8.787,0,0,1,9.786.008,8.027,8.027,0,0,0,9.953-.923A2.535,2.535,0,0,1,56.648,33.923Zm0,0"/></g></g></svg>