<svg xmlns="http://www.w3.org/2000/svg" xmlns:xlink="http://www.w3.org/1999/xlink" width="60" height="60" viewBox="0 0 60 60"><defs><style>.a,.c{fill:#6f7484;}.a{stroke:#707070;}.b{clip-path:url(#a);}</style><clipPath id="a"><rect class="a" width="60" height="60" transform="translate(925 1088)"/></clipPath></defs><g class="b" transform="translate(-925 -1088)"><g transform="translate(925 1088)"><path class="c" d="M44.526,40.856a1.171,1.171,0,1,0,.343.828A1.18,1.18,0,0,0,44.526,40.856Z"/><path class="c" d="M58.712,52.963H56.395l.108-.108A11.612,11.612,0,0,0,59.348,41.22a11.514,11.514,0,0,0-.391-6.184,1.172,1.172,0,0,0-1.935-.443l-6.136,6.136a1.17,1.17,0,0,0-1.861-.277l-7.04,7.04a4.45,4.45,0,0,0-5.333-3.071,3.719,3.719,0,0,0-2.767-2.79,7.734,7.734,0,1,0-1.872.046,3.7,3.7,0,0,0-2.34,5.117,4.449,4.449,0,0,0-2.095,6.169h-.034a1.172,1.172,0,0,0-1.172,1.172,5.828,5.828,0,0,0,1.175,3.515H23.291V38.574a10.951,10.951,0,0,0,0-1.938V27.871a10.09,10.09,0,0,1,3.48-7.626,12.429,12.429,0,0,0,3.905-6.335H35.14a12.429,12.429,0,0,0,3.905,6.335,10.089,10.089,0,0,1,3.48,7.626v9.508a1.172,1.172,0,1,0,2.344,0V27.87a12.431,12.431,0,0,0-4.288-9.4,10.089,10.089,0,0,1-3.48-7.626V1.172A1.172,1.172,0,0,0,35.929,0H29.887a1.172,1.172,0,0,0-1.172,1.172v9.678a10.089,10.089,0,0,1-3.48,7.626,12.432,12.432,0,0,0-4.288,9.4v.012l-1.294-4.425a1.172,1.172,0,0,0-1.125-.843H16.354a1.172,1.172,0,1,0,0,2.344h1.3l1.9,6.514A8.133,8.133,0,0,0,10.9,33.307a5.777,5.777,0,0,1-7.669.447l2.572-8.8H6.921a1.172,1.172,0,1,0,0-2.344h-2a1.172,1.172,0,0,0-1.125.843L.773,33.8l0,.008-.221.756a10.894,10.894,0,0,0,10,13.943v1.564a7.6,7.6,0,0,1-7.587,7.587,1.172,1.172,0,1,0,0,2.344H20.482a1.167,1.167,0,0,0,.822-.337,1.168,1.168,0,0,0,.815.331H54.025a5.865,5.865,0,0,0,5.859-5.859A1.171,1.171,0,0,0,58.712,52.963ZM31.059,10.849V2.344h3.7v8.506q0,.36.021.717H31.038Q31.059,11.21,31.059,10.849ZM9.365,57.656A10,10,0,0,0,11.639,54.9c.028,0,.056,0,.085,0s.057,0,.085,0a10,10,0,0,0,2.274,2.761Zm11.582.1a1.168,1.168,0,0,0-.465-.1A7.6,7.6,0,0,1,12.9,50.069V48.506a10.946,10.946,0,0,0,8.052-4.074V57.753Zm0-19.279a8.537,8.537,0,0,1-8.5,7.7H11.006A8.55,8.55,0,0,1,2.582,36.158a8.128,8.128,0,0,0,9.972-1.194,5.786,5.786,0,0,1,7.965-.2l.133.454a8.457,8.457,0,0,1,.3,1.517v1.736ZM51.531,43.4l5.661-5.661a9.192,9.192,0,0,1-.126,2.954L51.5,46.257A11.492,11.492,0,0,0,51.531,43.4Zm-.441,6.583h0L57.472,43.6a9.261,9.261,0,0,1-2.627,7.6l-.243.243a9.18,9.18,0,0,1-2.014,1.522H48.114l.108-.108c.05-.05.1-.1.147-.152Zm-1.9-6.382a9.267,9.267,0,0,1-2.446,7.412l-.581.581a9.188,9.188,0,0,1-1.855,1.37h-4.48ZM37.714,46.635A2.109,2.109,0,1,1,35.6,48.745,2.112,2.112,0,0,1,37.714,46.635Zm-2.141,6.012a4.438,4.438,0,0,0,.719.316h-.872C35.474,52.86,35.525,52.754,35.573,52.647Zm-8.2-18.667a5.39,5.39,0,1,1,5.39,5.39A5.4,5.4,0,0,1,27.369,33.981Zm5.668,9.9a1.364,1.364,0,1,1-1.364,1.364A1.365,1.365,0,0,1,33.038,43.876ZM31.5,48.744a2.109,2.109,0,1,1-2.109,2.109A2.112,2.112,0,0,1,31.5,48.744ZM54.025,57.65H32.231a3.521,3.521,0,0,1-3.315-2.344H57.34A3.521,3.521,0,0,1,54.025,57.65Z"/><path class="c" d="M12.554,22.958a1.171,1.171,0,1,0,.343.828A1.18,1.18,0,0,0,12.554,22.958Z"/></g></g></svg>