<svg xmlns="http://www.w3.org/2000/svg" width="23.273" height="16" viewBox="0 0 23.273 16"><defs><style>.a{fill:#fff;}</style></defs><g transform="translate(0 -80)"><g transform="translate(0 80)"><path class="a" d="M22.284,81.542c-.631-1.123-1.316-1.329-2.711-1.408-1.393-.095-4.9-.134-7.933-.134s-6.547.039-7.939.132-2.079.285-2.716,1.409S0,84.595,0,88v.012c0,3.386.335,5.332.985,6.442S2.307,95.776,3.7,95.871,8.6,96,11.639,96s6.54-.048,7.935-.128,2.08-.3,2.711-1.421c.656-1.11.988-3.056.988-6.442V88C23.273,84.595,22.941,82.663,22.284,81.542ZM8.727,92.364V83.636L16,88Z" transform="translate(0 -80)"/></g></g></svg>